<?xml version="1.0" encoding="utf-8"?>
<!-- Generator: Adobe Illustrator 24.0.0, SVG Export Plug-In . SVG Version: 6.00 Build 0)  -->
<svg version="1.1" id="Layer_1" xmlns="http://www.w3.org/2000/svg" xmlns:xlink="http://www.w3.org/1999/xlink" x="0px" y="0px"
	 viewBox="0 0 826 792" style="enable-background:new 0 0 826 792;" xml:space="preserve">
<style type="text/css">
	.st0{fill:none;}
	.st1{fill:#EE2524;}
	.st2{fill:#4EB96E;}
	.st3{fill:#F05C5A;}
	.st4{fill:#FF03F3;}
	.st5{fill:#F0C419;}
	.st6{fill:#3D332A;}
	.st7{fill:#231F20;}
	.st8{fill:#ED1C24;}
</style>
<polygon class="st0" points="91.21,157 91.21,168.34 102.45,168.34 102.45,145.86 114.94,145.86 114.94,133.37 126.18,133.37 
	126.18,123.38 136.17,123.38 136.17,111.75 136.17,100.3 136.17,89.41 136.17,77.96 136.17,67.18 126.18,67.18 126.18,77.96 
	126.18,89.66 114.94,89.66 114.94,100.3 114.94,113.39 102.45,113.39 102.45,123.21 102.45,133.37 91.21,133.37 91.21,145.54 "/>
<polygon class="st0" points="114.94,169.59 126.18,169.59 126.18,157.1 137.42,157.1 137.42,145.86 125.61,145.86 114.94,145.86 
	114.94,157 "/>
<polygon class="st0" points="47.5,202.06 58.74,202.06 58.74,190.82 71.22,190.82 71.22,179.58 58.59,179.58 47.5,179.58 
	47.5,190.79 "/>
<polygon class="st1" points="147.94,43.45 136.17,43.45 136.17,55.94 126.18,55.94 126.18,67.18 136.17,67.18 136.17,77.96 
	136.17,89.41 136.17,100.3 136.17,111.75 136.17,123.38 126.18,123.38 126.18,133.37 114.94,133.37 114.94,145.86 125.61,145.86 
	137.42,145.86 137.42,157.1 126.18,157.1 126.18,169.59 114.94,169.59 114.94,157 114.94,145.86 102.45,145.86 102.45,168.34 
	91.21,168.34 91.21,157 91.21,145.54 91.21,133.37 81.22,133.37 81.22,145.54 81.22,157.1 58.74,157.1 58.74,168.34 47.5,168.34 
	47.5,179.58 58.59,179.58 71.22,179.58 71.22,190.82 58.74,190.82 58.74,202.06 47.5,202.06 47.5,190.79 47.5,179.58 36.26,179.58 
	36.26,213.3 47.5,213.3 47.5,224.54 58.74,224.54 58.74,235.78 91.21,235.78 91.21,224.54 102.45,224.54 102.45,213.3 114.94,213.3 
	114.94,190.82 126.18,190.82 126.18,200.81 158.65,200.81 158.65,190.82 169.89,190.82 169.89,179.58 181.13,179.58 181.13,145.86 
	169.89,145.86 169.89,133.37 158.65,133.37 158.65,123.38 148.66,123.38 148.66,111.75 148.66,100.3 148.66,89.41 148.66,78.42 
	148.66,43.45 "/>
<polygon class="st2" points="181.74,43.45 170.28,43.45 159.4,43.45 148.66,43.45 148.66,78.42 158.65,78.42 158.65,89.66 
	169.89,89.66 169.89,100.9 181.13,100.9 181.13,89.66 193.62,89.66 193.62,77.96 193.62,67.07 193.62,55.62 193.62,43.45 "/>
<polygon class="st3" points="126.18,77.96 126.18,67.18 114.94,67.18 114.94,77.96 114.94,89.66 126.18,89.66 "/>
<polygon class="st3" points="114.94,100.3 114.94,89.66 102.45,89.66 102.45,100.3 102.45,113.39 114.94,113.39 "/>
<polygon class="st3" points="102.45,123.21 102.45,113.39 91.21,113.39 91.21,123.21 91.21,133.37 102.45,133.37 "/>
<path class="st4" d="M789,75.48V63.06h-8.69v-9.94h-47.2v9.94h-9.94v12.42h-11.18V63.06h-11.18v-9.94h-45.96v9.94h-9.94v12.42
	h-11.18v44.72h11.18v22.36h9.94v12.42h11.18v11.18h12.42v9.94h11.18v11.18h11.18v11.18h11.18v11.18h11.18v-11.18h9.94v-11.18h12.42
	v-11.18h12.42v-9.94h9.94v-11.18h12.42v-12.42H789V120.2h12.42V75.48H789z M689.63,75.48h-10.79h-11.57v10.07v11.43v10.86v11.12
	h-12.42v-11.12V96.98V85.55V75.48h12.42V63.06h11.57h10.79V75.48z"/>
<g>
	<rect x="757.03" y="563.65" class="st5" width="7.73" height="7.73"/>
	<rect x="748.19" y="553.71" class="st5" width="8.84" height="9.94"/>
	<rect x="757.03" y="512.82" class="st5" width="7.73" height="7.73"/>
	<rect x="748.19" y="520.56" class="st5" width="8.84" height="8.84"/>
	<polygon class="st5" points="765.31,537.13 757.03,537.13 757.03,547.08 765.31,547.08 773.6,547.08 773.6,537.13 	"/>
	<polygon class="st5" points="731.61,571.24 731.61,580.22 740.45,580.22 740.45,571.24 740.45,563.65 731.61,563.65 	"/>
	<polygon class="st5" points="731.61,512.59 731.61,520.56 740.45,520.56 740.45,512.59 740.45,503.99 731.61,503.99 	"/>
	<g>
		<rect x="731.61" y="537.13" class="st6" width="8.84" height="9.94"/>
		<rect x="723.88" y="547.08" class="st6" width="7.73" height="6.63"/>
		<rect x="715.04" y="553.71" class="st6" width="8.84" height="9.94"/>
		<polygon class="st6" points="706.23,547.08 698.1,547.08 689.63,547.08 689.63,553.71 698.1,553.71 706.23,553.71 715.04,553.71 
			715.04,547.08 		"/>
		<polygon class="st6" points="680.79,563.1 680.79,571.39 689.63,571.39 689.63,563.1 689.63,553.71 680.79,553.71 		"/>
		<rect x="673.05" y="571.39" class="st6" width="7.73" height="8.84"/>
		<path class="st6" d="M664.21,588.36v7.33h-16.57v17.68h-16.57v7.73h-8.84v8.84h-7.73v16.57h-8.84v41.99h8.84v16.57h7.73v8.84h8.84
			v7.73h16.57v8.84h41.99v-8.84h16.57v-7.73h8.84v-8.84h8.84v-16.57h7.73v-41.99h-7.73v-16.57h-8.84v-8.84h-8.84v-7.73h-16.57
			v-17.68h-16.57v-7.33v-8.14h-8.84V588.36z M680.79,646.58v-8.9h8.84v-7.73h8.05h8.53v7.73h7.73v8.9v7.67h-7.73v8.84h-8.53h-8.05
			v-8.84h-8.84V646.58z"/>
	</g>
</g>
<g>
	<rect x="58.16" y="593.44" class="st5" width="10.66" height="10.66"/>
	<polygon class="st5" points="58.16,571.57 58.16,561.01 58.16,550.79 47.5,550.79 47.5,561.01 47.5,571.57 47.5,582.68 
		47.5,593.44 58.16,593.44 58.16,582.68 	"/>
	<rect x="199.42" y="593.44" class="st5" width="11.99" height="10.66"/>
	<polygon class="st5" points="211.41,550.79 211.41,561.01 211.41,571.57 211.41,582.68 211.41,593.44 223.4,593.44 223.4,582.68 
		223.4,571.57 223.4,561.01 223.4,550.79 	"/>
	<polygon class="st5" points="211.41,538.8 211.41,550.79 190.09,550.79 190.09,593.44 178.09,593.44 178.09,604.1 199.42,604.1 
		199.42,616.09 167.43,616.09 167.43,625.42 156.77,625.42 156.77,637.41 144.78,637.41 144.78,681.39 167.43,681.39 167.43,702.71 
		100.8,702.71 100.8,681.39 124.79,681.39 124.79,637.41 112.79,637.41 112.79,625.42 100.8,625.42 100.8,616.09 68.82,616.09 
		68.82,604.1 91.47,604.1 91.47,593.44 80.81,593.44 80.81,550.79 58.16,550.79 58.16,538.8 80.81,538.8 80.81,517.48 68.82,517.48 
		68.82,506.82 199.42,506.82 199.42,517.48 190.09,517.48 190.09,538.8 	"/>
</g>
<g>
	<path class="st7" d="M282.75,53.88h-52.1v10.08h-10.08v31.93h10.08v10.08h30.25v8.41h-40.34v11.76h52.1v-10.08h10.08V53.88z
		 M260.9,94.21h-10.08h-8.41V65.64h18.49V94.21z"/>
	<path class="st7" d="M353.33,53.88h-42.01v11.76h30.25v8.41h-30.25v10.08h-10.08v11.76h10.08v10.08h52.1V63.96h-10.08V53.88z
		 M341.57,94.21h-10.08h-8.41v-8.41h18.49V94.21z"/>
	<polygon class="st7" points="464.26,105.97 464.26,63.96 454.18,63.96 454.18,53.88 381.91,53.88 381.91,105.97 403.75,105.97 
		403.75,65.64 412.16,65.64 412.16,105.97 434.01,105.97 434.01,65.64 442.42,65.64 442.42,105.97 	"/>
	<path class="st7" d="M534.85,53.88h-42.01v10.08h-10.08v31.93h10.08v10.08h52.1V94.21h-40.34v-8.41h40.34V63.96h-10.08V53.88z
		 M523.09,74.05H513h-8.41v-8.41h18.49V74.05z"/>
	<polygon class="st7" points="583.59,53.88 583.59,63.96 575.18,63.96 575.18,53.88 563.42,53.88 563.42,105.97 585.27,105.97 
		585.27,65.64 605.44,65.64 605.44,53.88 	"/>
	<polygon class="st7" points="348.29,150.68 276.03,150.68 276.03,202.78 297.87,202.78 297.87,162.44 306.28,162.44 306.28,202.78 
		328.12,202.78 328.12,162.44 336.53,162.44 336.53,202.78 358.38,202.78 358.38,160.77 348.29,160.77 	"/>
	<path class="st7" d="M428.96,150.68h-42.01v10.08h-10.08v31.93h10.08v10.08h42.01V192.7h10.08v-31.93h-10.08V150.68z M417.2,191.02
		h-10.08h-8.41v-28.58h18.49V191.02z"/>
	<polygon class="st7" points="529.81,150.68 457.54,150.68 457.54,202.78 479.38,202.78 479.38,162.44 487.79,162.44 487.79,202.78 
		509.64,202.78 509.64,162.44 518.05,162.44 518.05,202.78 539.89,202.78 539.89,160.77 529.81,160.77 	"/>
</g>
<g>
	<polygon class="st8" points="356.63,408.13 365.04,408.13 375.13,408.13 375.13,399.72 356.63,399.72 	"/>
	<polygon class="st8" points="275.96,408.13 284.37,408.13 294.45,408.13 294.45,379.55 275.96,379.55 	"/>
	<polygon class="st8" points="432.26,504.93 440.67,504.93 450.76,504.93 450.76,476.35 432.26,476.35 	"/>
	<polygon class="st8" points="538.14,387.96 546.55,387.96 556.64,387.96 556.64,379.55 538.14,379.55 	"/>
	<path class="st8" d="M631.28,342.02v-32.86h-23v-26.29H483.42v26.29h-26.28v32.86h-29.57v-32.86h-29.57v-26.29H276.42v26.29h-26.29
		v32.86h-29.57v118.29h29.57v59.14h26.29v32.86h29.57v29.57h32.86v26.29h29.57v29.57h29.57v29.57h29.57v29.57h29.57v-29.57h26.28
		v-29.57h32.86v-29.57h32.86v-26.29h26.29V552.3h32.86v-32.86h23v-59.14h32.86V342.02H631.28z M306.21,440.05h-52.1v-11.76h40.34
		v-8.41H264.2V409.8h-10.08v-31.93h10.08v-10.08h52.1v62.18h-10.08V440.05z M391.93,516.69h-21.84v-40.34h-8.41v40.34h-21.84v-40.34
		h-8.41v40.34h-21.84v-52.1h72.27v10.08h10.08V516.69z M396.97,419.89h-52.1V409.8h-10.08v-11.76h10.08v-10.08h30.25v-8.41h-30.25
		v-11.76h42.01v10.08h10.08V419.89z M472.6,506.61h-10.08v10.08H420.5v-10.08h-10.08v-31.93h10.08v-10.08h42.01v10.08h10.08V506.61z
		 M439.5,385.55c-0.07,0.06-0.15,0.13-0.25,0.22c0-0.14-0.01-0.29-0.01-0.43c0.4-0.33,0.75-0.47,0.95-0.47
		c-0.15,0.18-0.32,0.36-0.44,0.47c0,0-0.01,0.01-0.02,0.01C439.78,385.07,439.73,385.07,439.5,385.55z M475.97,419.89v-40.34h-8.41
		v40.34h-21.84v-40.34h-8.41v40.34h-21.84v-52.1h72.27v10.08h10.08v42.01H475.97z M573.44,516.69H551.6v-40.34h-8.41v40.34h-21.84
		v-40.34h-8.41v40.34h-21.84v-52.1h72.27v10.08h10.08V516.69z M578.48,399.72h-40.34v8.41h40.34v11.76h-52.1V409.8H516.3v-31.93
		h10.08v-10.08h42.01v10.08h10.08V399.72z M638.99,379.55h-20.17v40.34h-21.84v-52.1h11.76v10.08h8.41v-10.08h21.84V379.55z"/>
</g>
</svg>
